# xmcd
#
# Track frame offsets: 
#        150
#        15814
#        27515
#        42259
#        59709
#        71634
#        91258
#        114091
#        129532
#        154402
#        167528
#        181346
#        198591
#        214289
#
# Disc length: 3071 seconds
#
# Revision: 0
# Processed by: cddbd v1.5.2PL0 Copyright (c) Steve Scherf et al.
# Submitted via: ExactAudioCopyFreeDBPlugin 1.0
#
DISCID=bf0bfd0e
DTITLE=Chris "Bad News" Barnes - Hokum Blues
DYEAR=2017
DGENRE=Blues
TTITLE0=It Hurts Me Too
TTITLE1=Let Me Play With Your Poodle
TTITLE2=I'm Gonna Get High
TTITLE3=It's Tight Like That
TTITLE4=I Had To Give Up Gym
TTITLE5=Things About Coming My Way
TTITLE6=You Cant Get Enough Of That Stuff
TTITLE7=Hokum Blues
TTITLE8=Somebody Been Using That Thing
TTITLE9=Keep Your Mind On It
TTITLE10=Let Me Pat That Thing
TTITLE11=Caught Him Doing It
TTITLE12=Gin Mill Blues
TTITLE13=Christmas And New Year's Blues
EXTD=
EXTT0=
EXTT1=
EXTT2=
EXTT3=
EXTT4=
EXTT5=
EXTT6=
EXTT7=
EXTT8=
EXTT9=
EXTT10=
EXTT11=
EXTT12=
EXTT13=
PLAYORDER=
